<svg xmlns="http://www.w3.org/2000/svg" width="86" height="86" viewBox="0 0 86 86"><g><g><g><g><g><path fill="#fff" d="M80.96 22.676c0 1.39-1.13 2.52-2.519 2.52H68.363c-1.389 0-2.52-1.131-2.52-2.52v-7.559h15.118zM55.767 80.96H5.039v-2.52c0-1.389 1.13-2.52 2.52-2.52h45.687c1.39 0 2.52 1.131 2.52 2.52zM10.078 35.273h40.649v35.61H10.078zm0-27.714c0-1.39 1.13-2.52 2.52-2.52h35.609c1.39 0 2.52 1.13 2.52 2.52v22.675H10.078zm73.402 2.52h-2.52v-7.56a2.52 2.52 0 0 0-5.038 0v7.56h-5.04v-7.56a2.52 2.52 0 0 0-5.038 0v7.56h-2.52a2.52 2.52 0 0 0-2.52 2.519v10.078c0 4.168 3.391 7.558 7.56 7.558h2.519v32.754c0 1.39-1.13 2.52-2.52 2.52-1.389 0-2.52-1.13-2.52-2.52V47.871c0-4.168-3.39-7.558-7.558-7.558h-2.52V7.559C55.766 3.39 52.376 0 48.208 0h-35.61C8.43 0 5.04 3.39 5.04 7.559v63.757C2.107 72.356 0 75.156 0 78.441v5.04A2.52 2.52 0 0 0 2.52 86h55.765a2.52 2.52 0 0 0 2.52-2.52v-5.039c0-3.284-2.107-6.085-5.04-7.125V45.352h2.52c1.39 0 2.52 1.13 2.52 2.52v15.116c0 4.168 3.39 7.559 7.558 7.559 4.168 0 7.559-3.39 7.559-7.559V30.234h2.52c4.167 0 7.558-3.39 7.558-7.558V12.598a2.52 2.52 0 0 0-2.52-2.52z"/></g></g></g><g><g><g><path fill="#fff" d="M37.585 51.586a2.52 2.52 0 0 0-2.144-1.195h-6l3.215-6.432a2.52 2.52 0 0 0-4.507-2.254L23.11 51.783a2.52 2.52 0 0 0 2.253 3.647h6.002l-3.216 6.431a2.52 2.52 0 1 0 4.507 2.254l5.039-10.078a2.52 2.52 0 0 0-.11-2.451z"/></g></g></g><g><g><g><path fill="#fff" d="M40.648 20.156H20.156v-5.039h20.492zm2.52-10.078H17.637a2.52 2.52 0 0 0-2.52 2.52v10.078a2.52 2.52 0 0 0 2.52 2.52h25.531a2.52 2.52 0 0 0 2.52-2.52V12.598a2.52 2.52 0 0 0-2.52-2.52z"/></g></g></g></g></g></svg>