<svg xmlns="http://www.w3.org/2000/svg" width="86" height="86" viewBox="0 0 86 86"><g><g><g><path fill="#fff" d="M60.5 70.333h-5v-10h5zm-45-10h5v10h-5zm30 0h5v10h-5zm-15 10h-5v-10h5zm5-10h5v10h-5zm27.5-5H13a2.5 2.5 0 0 0-2.5 2.5v15a2.5 2.5 0 0 0 2.5 2.5h50a2.5 2.5 0 0 0 2.5-2.5v-15a2.5 2.5 0 0 0-2.5-2.5z"/></g><g><path fill="#fff" d="M80.5 69.5h-5v-8.333h5zm-10 8.333c0 1.379-1.121 2.5-2.5 2.5H8a2.503 2.503 0 0 1-2.5-2.5v-25c0-1.378 1.121-2.5 2.5-2.5h60c1.379 0 2.5 1.122 2.5 2.5zM83 56.167h-7.5v-3.334c0-4.135-3.364-7.5-7.5-7.5H8c-4.136 0-7.5 3.365-7.5 7.5v25c0 4.136 3.365 7.5 7.5 7.5h60c4.136 0 7.5-3.364 7.5-7.5V74.5H83a2.5 2.5 0 0 0 2.5-2.5V58.667a2.5 2.5 0 0 0-2.5-2.5z"/></g><g><path fill="#fff" d="M80.5 24.167h-5v-8.334h5zm-10 8.333c0 1.379-1.121 2.5-2.5 2.5H8a2.503 2.503 0 0 1-2.5-2.5v-25C5.5 6.121 6.621 5 8 5h60c1.379 0 2.5 1.121 2.5 2.5zM83 10.833h-7.5V7.5C75.5 3.364 72.136 0 68 0H8C3.864 0 .5 3.365.5 7.5v25C.5 36.636 3.865 40 8 40h60c4.136 0 7.5-3.365 7.5-7.5v-3.333H83a2.5 2.5 0 0 0 2.5-2.5V13.333a2.5 2.5 0 0 0-2.5-2.5z"/></g><g><path fill="#fff" d="M58.078 17.672l-19.167-7.5A2.5 2.5 0 0 0 35.5 12.5v11.337l-15.756-6.165a2.5 2.5 0 1 0-1.822 4.656l19.167 7.5A2.5 2.5 0 0 0 40.5 27.5V16.163l15.756 6.165a2.5 2.5 0 0 0 1.822-4.656z"/></g></g></g></svg>