<svg xmlns="http://www.w3.org/2000/svg" width="87" height="87" viewBox="0 0 87 87"><g><g><g><path fill="#fff" d="M16.57 73.793c-6.414 0-11.633-5.219-11.633-11.634 0-5.71 4.08-10.535 9.702-11.473a2.529 2.529 0 0 0 2.112-2.46c.072-5.263 4.413-9.545 9.676-9.545 2.261 0 4.462.797 6.196 2.244a2.528 2.528 0 0 0 3.888-.82c3.033-6.137 9.165-9.948 16.003-9.948 9.837 0 17.84 8.003 17.84 17.84 0 .117-.002.234-.004.351a2.53 2.53 0 0 0 1.932 2.506 11.597 11.597 0 0 1 8.88 11.306c-.001 6.414-5.22 11.633-11.635 11.633zM5.031 36.237a11.26 11.26 0 0 1 8.621-10.977 2.529 2.529 0 0 0 1.933-2.507 17.607 17.607 0 0 1-.005-.34c0-9.57 7.785-17.355 17.355-17.355 6.651 0 12.616 3.708 15.566 9.677a2.529 2.529 0 0 0 3.888.821 9.397 9.397 0 0 1 6.01-2.176c5.104 0 9.314 4.152 9.384 9.257a2.529 2.529 0 0 0 2.112 2.46 11.252 11.252 0 0 1 9.42 11.14c0 3.06-1.613 6.28-4.129 8.545-1.567-11.11-11.137-19.684-22.673-19.684a22.828 22.828 0 0 0-12.247 3.548 22.972 22.972 0 0 0-6.863 6.734 14.76 14.76 0 0 0-6.976-1.757c-3.9 0-7.577 1.51-10.352 4.25a14.642 14.642 0 0 0-4.218 8.272c-.19.055-.378.115-.565.177-3.729-2.12-6.26-6.137-6.26-10.085zm79.343 0a16.355 16.355 0 0 0-11.7-15.68 14.35 14.35 0 0 0-4.128-8.07 14.355 14.355 0 0 0-10.148-4.166c-2.378 0-4.712.591-6.789 1.697a22.488 22.488 0 0 0-6.687-6.545A22.345 22.345 0 0 0 32.935 0C21.076 0 11.34 9.257 10.57 20.924A16.303 16.303 0 0 0-.027 36.237c0 3.168 1.034 6.325 2.99 9.13a18.37 18.37 0 0 0 3.352 3.628c-.883.687-1.7 1.463-2.436 2.323-2.58 3.017-4 6.867-4 10.841 0 9.204 7.487 16.692 16.691 16.692h52.957c9.204 0 16.692-7.488 16.692-16.692 0-5.709-2.86-10.839-7.378-13.865 3.414-3.197 5.533-7.653 5.533-12.057z"/></g><g><path fill="#fff" d="M23.275 17.697a2.529 2.529 0 1 1 5.058 0 2.529 2.529 0 0 1-5.058 0z"/></g><g><path fill="#fff" d="M24.422 65.237a2.529 2.529 0 1 1 5.058 0 2.529 2.529 0 0 1-5.058 0z"/></g><g><path fill="#fff" d="M-.121 83.9a2.529 2.529 0 1 1 5.058 0 2.529 2.529 0 0 1-5.058 0z"/></g><g><path fill="#fff" d="M77.368 5.164a2.529 2.529 0 1 1 5.058 0 2.529 2.529 0 0 1-5.058 0z"/></g><g><path fill="#fff" d="M52.935 49.079a2.529 2.529 0 1 1 5.058 0 2.529 2.529 0 0 1-5.058 0z"/></g></g></g></svg>