<svg xmlns="http://www.w3.org/2000/svg" width="82" height="87" viewBox="0 0 82 87"><g><g><g><path fill="#fff" d="M76.365 66.313c-25.558 5.865-45.102 5.865-70.66 0v-8.117c0-4.174 3.396-7.569 7.57-7.569h55.527c4.171.004 7.563 3.398 7.563 7.57zm-5.047 12.242a2.527 2.527 0 0 1-2.524 2.524h-5.047a2.527 2.527 0 0 1-2.524-2.524v-4.259c3.29-.467 6.645-1.046 10.095-1.736zm-50.472 0a2.527 2.527 0 0 1-2.523 2.524h-5.047a2.527 2.527 0 0 1-2.524-2.524V72.56c3.45.69 6.805 1.269 10.094 1.736zm3.386-46.722a2.51 2.51 0 0 1 2.257-1.395h29.092a2.51 2.51 0 0 1 2.257 1.395l6.873 13.747H17.36zM74.887 45.58h4.002a2.523 2.523 0 1 0 0-5.048h-5.048c-.669 0-1.31.267-1.784.74l-2.571 2.57-7.134-14.266a7.529 7.529 0 0 0-6.771-4.185H26.489a7.53 7.53 0 0 0-6.772 4.185l-7.133 14.267-2.571-2.571a2.524 2.524 0 0 0-1.784-.74H3.18a2.524 2.524 0 0 0 0 5.048h4.002l1.053 1.053C3.78 48.582.658 53.03.658 58.196v10.118c0 1.169.802 2.185 1.939 2.456 1.046.249 2.08.487 3.108.718v7.067c0 4.174 3.396 7.57 7.57 7.57h5.048c4.174 0 7.57-3.396 7.57-7.57v-3.622c5.13.56 10.136.84 15.142.84s10.012-.28 15.142-.84v3.622c0 4.174 3.396 7.57 7.57 7.57h5.047c4.175 0 7.571-3.396 7.571-7.57v-7.067c1.027-.23 3.127-.723 3.136-.725.32-.08 1.911-.582 1.911-2.634v-9.933c0-5.166-3.122-9.614-7.578-11.563z"/></g><g><path fill="#fff" d="M23.982 58.273L13.887 55.75a2.523 2.523 0 0 0-1.224 4.897l10.095 2.524a2.524 2.524 0 0 0 1.224-4.897z"/></g><g><path fill="#fff" d="M68.182 55.75l-10.094 2.523a2.523 2.523 0 1 0 1.224 4.897l10.095-2.524a2.523 2.523 0 0 0-1.225-4.897z"/></g><g><path fill="#fff" d="M24.975 11.686c8.856-8.855 23.264-8.855 32.12 0a2.524 2.524 0 0 0 3.57-3.568c-10.825-10.824-28.436-10.824-39.26 0a2.523 2.523 0 1 0 3.57 3.568z"/></g><g><path fill="#fff" d="M28.544 15.256a2.523 2.523 0 1 0 3.568 3.568 12.534 12.534 0 0 1 8.923-3.689c3.375 0 6.543 1.31 8.922 3.69a2.524 2.524 0 0 0 3.57-3.57 17.543 17.543 0 0 0-12.492-5.167c-4.723 0-9.16 1.835-12.491 5.168z"/></g></g></g></svg>