<svg xmlns="http://www.w3.org/2000/svg" width="246" height="50" viewBox="0 0 246 50"><g><g><g><path d="M222.38 33.206h-6.31V.236h6.31v13.766L235.219.236h8.995L228.694 16.72l16.739 16.485h-8.994L222.381 19.44zM55.58 0l17.003 22.561V0h6.124v32.97h-5.981L55.767 10.456V32.97h-6.17V0zM6.312.236v32.97H0V.236zm30.474 16.58h5.51v12.387c-3.39 2.544-8.482 4.286-13.047 4.286-9.843 0-17.427-7.302-17.427-16.768 0-9.467 7.725-16.674 17.805-16.674 4.756 0 9.607 1.837 12.914 4.711l-3.588 4.616c-2.498-2.308-5.983-3.721-9.326-3.721-6.36 0-11.35 4.86-11.35 11.068 0 6.264 5.038 11.115 11.397 11.115 2.26 0 4.85-.794 7.112-2.072zm62.72-9.845c-3.681 8.742-7.354 17.487-11.018 26.235h-6.547L96.401.236h6.544l14.27 32.97h-6.78c-3.653-8.74-7.296-17.485-10.93-26.235zM174.94.235v4.428l-19.404 23.032h19.64v5.51H147.01v-4.473l19.407-22.986h-18.84l.047-5.51zm31.146 32.97c-3.654-8.739-7.296-17.484-10.927-26.234-3.682 8.74-7.356 17.485-11.022 26.235h-6.546l14.46-32.97h6.546l14.272 32.97h-6.783zm-62.823-27.47h-13.832v.01a3.469 3.469 0 0 0-3.47 3.47 3.604 3.604 0 0 0 .636 2.07c.374.547.918.957 1.547 1.167h.01l10.154 3.297a8.545 8.545 0 0 1 4.356 3.25 9.129 9.129 0 0 1 1.643 5.215 8.946 8.946 0 0 1-2.627 6.355 8.946 8.946 0 0 1-6.352 2.631h-14.971v-5.505h14.971a3.469 3.469 0 0 0 2.458-1.017h.009a3.449 3.449 0 0 0 1.008-2.455 3.624 3.624 0 0 0-.636-2.073 3.056 3.056 0 0 0-1.548-1.164h-.011l-10.157-3.298a8.537 8.537 0 0 1-4.356-3.25 9.129 9.129 0 0 1-1.643-5.214 8.983 8.983 0 0 1 8.984-8.985l-.002.011h13.833z"/></g><g><path fill="#22b473" d="M37.57 41.83h6.024v1.279h-4.599v2.112h4.073v1.278h-4.073v2.191h4.654v1.278h-6.08z"/></g><g><path fill="#22b473" d="M47.792 41.83h1.427v6.824h4.276v1.3H47.8z"/></g><g><path fill="#22b473" d="M57.423 41.83h6.025v1.279H58.85v2.112h4.071v1.278h-4.071v2.191h4.652v1.278h-6.08z"/></g><g><path fill="#22b473" d="M67.645 41.83h1.428v4.085l3.863-4.084h1.753l-3.377 3.492 3.527 4.63h-1.727l-2.774-3.651-1.265 1.3v2.355h-1.428z"/></g><g><path fill="#22b473" d="M80.388 43.154H77.81v-1.323h6.59v1.323h-2.575v6.8h-1.438z"/></g><g><path fill="#22b473" d="M89.787 45.847v-2.726h2.085c1.055 0 1.683.475 1.683 1.346v.024c0 .823-.65 1.356-1.672 1.356zm-1.419 4.106h1.426v-2.831h1.786l1.995 2.831h1.683l-2.19-3.074c1.137-.325 1.937-1.127 1.937-2.461v-.022a2.452 2.452 0 0 0-.674-1.753c-.517-.511-1.322-.812-2.342-.812h-3.621z"/></g><g><path fill="#22b473" d="M105.834 45.915c0 1.577-1.127 2.866-2.74 2.866-1.611 0-2.76-1.31-2.76-2.888v-.024c0-1.58 1.127-2.866 2.739-2.866 1.612 0 2.76 1.31 2.76 2.89zm-2.761 4.18a4.16 4.16 0 0 0 4.258-4.2v-.024c0-2.286-1.742-4.177-4.236-4.177-2.494 0-4.258 1.911-4.258 4.199v.022c0 2.286 1.74 4.177 4.236 4.18z"/></g><g><path fill="#22b473" d="M111.508 41.83h1.52l2.471 3.835 2.472-3.834h1.521v8.122h-1.428V44.13l-2.556 3.834h-.045l-2.542-3.806v5.796h-1.404z"/></g><g><path fill="#22b473" d="M130.666 45.915c0 1.577-1.128 2.866-2.74 2.866-1.613 0-2.761-1.31-2.761-2.888v-.024c0-1.58 1.125-2.866 2.739-2.866 1.614 0 2.762 1.31 2.762 2.89zm-2.762 4.18c2.495 0 4.26-1.916 4.26-4.2v-.024c0-2.286-1.743-4.177-4.237-4.177-2.494 0-4.257 1.911-4.257 4.199v.022c0 2.286 1.738 4.18 4.234 4.18z"/></g><g><path fill="#22b473" d="M137.745 48.683v-2.228h2.262c1.123 0 1.67.411 1.67 1.096v.023c0 .73-.591 1.114-1.566 1.114zm0-3.422v-2.158h2.054c.916 0 1.425.395 1.425 1.034v.021c0 .73-.617 1.096-1.53 1.096zm-1.404 4.692h3.768c1.81 0 3.005-.777 3.005-2.227v-.024c0-1.103-.66-1.648-1.612-1.972.602-.314 1.16-.836 1.16-1.81v-.024a1.826 1.826 0 0 0-.548-1.346c-.464-.464-1.194-.72-2.122-.72h-3.651z"/></g><g><path fill="#22b473" d="M147.248 41.83h1.428v8.123h-1.428z"/></g><g><path fill="#22b473" d="M153.293 41.83h1.428v6.824h4.27v1.3h-5.698z"/></g><g><path fill="#22b473" d="M162.924 41.83h1.324l4.35 5.617V41.83h1.405v8.122h-1.196l-4.486-5.769v5.77h-1.404z"/></g><g><path fill="#22b473" d="M181.176 45.915c0 1.577-1.123 2.866-2.736 2.866-1.614 0-2.763-1.31-2.763-2.888v-.024c0-1.58 1.127-2.866 2.739-2.866 1.612 0 2.76 1.31 2.76 2.89zm-2.76 4.18a4.161 4.161 0 0 0 4.257-4.2v-.024c0-2.286-1.738-4.177-4.233-4.177-2.496 0-4.26 1.911-4.26 4.199v.022c0 2.286 1.74 4.177 4.236 4.18z"/></g><g><path fill="#22b473" d="M188.945 41.035h1.095l1.485-1.127-1.278-.548zm-2.697 7.735zm0 0a5.01 5.01 0 0 0 3.385 1.308c1.706 0 2.9-.904 2.9-2.425v-.031c0-1.342-.893-1.957-2.61-2.374-1.56-.374-1.926-.651-1.926-1.278v-.023c0-.535.486-.964 1.322-.964.745 0 1.476.288 2.206.836l.767-1.083a4.503 4.503 0 0 0-2.947-1.02c-1.614 0-2.774.962-2.774 2.355v.022c0 1.497.975 2.008 2.704 2.426 1.501.347 1.826.661 1.826 1.242v.022c0 .615-.557 1.022-1.438 1.022-1.001 0-1.779-.383-2.557-1.057z"/></g><g><path fill="#22b473" d="M199.787 41.035h1.095l1.486-1.127-1.278-.548zm-3.479 4.88c0 2.333 1.764 4.177 4.13 4.18 1.52 0 2.449-.558 3.296-1.44l-.913-.927c-.688.648-1.333 1.055-2.332 1.055-1.555 0-2.68-1.3-2.68-2.888v-.024c0-1.588 1.125-2.866 2.68-2.866.93 0 1.625.405 2.275 1.01l.913-1.056c-.778-.743-1.683-1.265-3.18-1.265-2.46 0-4.189 1.89-4.189 4.199z"/></g><g><path d="M239.34 48.453a2.541 2.541 0 1 1 0-5.083h2.542v5.083zm3.813-.318h1.78a.639.639 0 0 0 0-1.278h-1.78v-1.899h1.78a.639.639 0 0 0 0-1.278h-1.78v-.955a.635.635 0 0 0-.636-.635h-3.177a3.821 3.821 0 0 0-3.76 3.179h-2.456a.639.639 0 0 0 0 1.278h2.455a3.821 3.821 0 0 0 3.761 3.176h3.177c.351 0 .636-.284.636-.635z"/></g><g><path d="M208.103 46.547v-1.271h27.991v1.27z"/></g><g><path d="M.694 46.547v-1.271h32.572v1.27z"/></g></g></g></svg>